<svg xmlns="http://www.w3.org/2000/svg" viewBox="0 0 1024 1024" role="img" aria-labelledby="title desc">
  <title id="title">Beeroniza inverted logo mark</title>
  <desc id="desc">A light and amber version of the Beeroniza bee and stacked frame logo for dark backgrounds.</desc>
  <g>
    <rect x="266" y="302" width="344" height="420" rx="104" transform="rotate(-10 266 302)" fill="#F7F7FB" opacity="0.92"/>
    <rect x="414" y="304" width="344" height="420" rx="104" transform="rotate(10 414 304)" fill="#FFC542"/>
    <rect x="298" y="288" width="428" height="452" rx="128" fill="none" stroke="#F7F7FB" stroke-width="40"/>
    <ellipse cx="416" cy="500" rx="108" ry="142" transform="rotate(-24 416 500)" fill="#F7F7FB"/>
    <ellipse cx="608" cy="500" rx="108" ry="142" transform="rotate(24 608 500)" fill="#F7F7FB"/>
    <path d="M488 304C468 286 452 270 438 248" fill="none" stroke="#F7F7FB" stroke-linecap="round" stroke-width="18"/>
    <path d="M536 304C556 286 572 270 586 248" fill="none" stroke="#F7F7FB" stroke-linecap="round" stroke-width="18"/>
    <circle cx="436" cy="246" r="12" fill="#F7F7FB"/>
    <circle cx="588" cy="246" r="12" fill="#F7F7FB"/>
    <circle cx="512" cy="344" r="46" fill="#FFC542"/>
    <rect x="458" y="384" width="108" height="292" rx="54" fill="#FFC542"/>
    <rect x="458" y="476" width="108" height="28" rx="14" fill="#161427"/>
    <rect x="458" y="554" width="108" height="28" rx="14" fill="#161427"/>
  </g>
</svg>
