<svg xmlns="http://www.w3.org/2000/svg" viewBox="0 0 1200 630" role="img" aria-labelledby="title desc">
  <title id="title">Beeroniza Open Graph image</title>
  <desc id="desc">A social preview banner for Beeroniza with the logo mark on the left and empty headline space on the right.</desc>
  <defs>
    <pattern id="grid" width="48" height="48" patternUnits="userSpaceOnUse">
      <path d="M48 0H0V48" fill="none" stroke="#6C5CE7" stroke-opacity="0.18" stroke-width="1"/>
    </pattern>
  </defs>
  <rect width="1200" height="630" fill="#161427"/>
  <rect width="1200" height="630" fill="url(#grid)"/>
  <rect x="92" y="108" width="320" height="320" rx="96" fill="#201B3B"/>
  <rect x="92" y="108" width="320" height="320" rx="96" fill="none" stroke="#6C5CE7" stroke-opacity="0.24" stroke-width="6"/>
  <g transform="translate(80 94) scale(0.32)">
    <rect x="266" y="302" width="344" height="420" rx="104" transform="rotate(-10 266 302)" fill="#F7F7FB" opacity="0.92"/>
    <rect x="414" y="304" width="344" height="420" rx="104" transform="rotate(10 414 304)" fill="#FFC542"/>
    <rect x="298" y="288" width="428" height="452" rx="128" fill="none" stroke="#F7F7FB" stroke-width="40"/>
    <ellipse cx="416" cy="500" rx="108" ry="142" transform="rotate(-24 416 500)" fill="#F7F7FB"/>
    <ellipse cx="608" cy="500" rx="108" ry="142" transform="rotate(24 608 500)" fill="#F7F7FB"/>
    <path d="M488 304C468 286 452 270 438 248" fill="none" stroke="#F7F7FB" stroke-linecap="round" stroke-width="18"/>
    <path d="M536 304C556 286 572 270 586 248" fill="none" stroke="#F7F7FB" stroke-linecap="round" stroke-width="18"/>
    <circle cx="436" cy="246" r="12" fill="#F7F7FB"/>
    <circle cx="588" cy="246" r="12" fill="#F7F7FB"/>
    <circle cx="512" cy="344" r="46" fill="#FFC542"/>
    <rect x="458" y="384" width="108" height="292" rx="54" fill="#FFC542"/>
    <rect x="458" y="476" width="108" height="28" rx="14" fill="#161427"/>
    <rect x="458" y="554" width="108" height="28" rx="14" fill="#161427"/>
  </g>
  <rect x="530" y="112" width="576" height="320" rx="56" fill="none" stroke="#6C5CE7" stroke-opacity="0.18" stroke-width="4"/>
  <rect x="574" y="156" width="260" height="28" rx="14" fill="#F7F7FB" fill-opacity="0.92"/>
  <rect x="574" y="206" width="418" height="18" rx="9" fill="#6C5CE7" fill-opacity="0.52"/>
  <rect x="574" y="244" width="334" height="18" rx="9" fill="#6C5CE7" fill-opacity="0.32"/>
  <rect x="574" y="302" width="446" height="74" rx="30" fill="#201B3B" stroke="#6C5CE7" stroke-opacity="0.18" stroke-width="3"/>
  <rect x="920" y="148" width="142" height="18" rx="9" fill="#FFC542"/>
  <rect x="964" y="476" width="116" height="14" rx="7" fill="#FFC542"/>
  <rect x="536" y="486" width="188" height="14" rx="7" fill="#6C5CE7" fill-opacity="0.38"/>
  <rect x="752" y="486" width="162" height="14" rx="7" fill="#F7F7FB" fill-opacity="0.28"/>
  <rect x="102" y="454" width="124" height="124" rx="34" transform="rotate(-10 102 454)" fill="#6C5CE7" fill-opacity="0.32"/>
  <rect x="250" y="472" width="120" height="120" rx="34" transform="rotate(10 250 472)" fill="#FFC542" fill-opacity="0.88"/>
</svg>
