<svg xmlns="http://www.w3.org/2000/svg" viewBox="0 0 1000 700" role="img" aria-labelledby="title desc">
  <title id="title">Beeroniza empty state illustration</title>
  <desc id="desc">A small bee placing a layer into a stacked image frame.</desc>
  <g>
    <rect x="548" y="164" width="232" height="280" rx="72" transform="rotate(-8 548 164)" fill="#6C5CE7"/>
    <rect x="646" y="176" width="232" height="280" rx="72" transform="rotate(8 646 176)" fill="#FFC542"/>
    <rect x="560" y="170" width="264" height="304" rx="78" fill="#F7F7FB" stroke="#161427" stroke-width="28"/>
    <rect x="622" y="236" width="140" height="16" rx="8" fill="#6C5CE7" fill-opacity="0.45"/>
    <rect x="622" y="274" width="108" height="16" rx="8" fill="#6C5CE7" fill-opacity="0.28"/>
    <rect x="612" y="320" width="160" height="110" rx="26" fill="none" stroke="#161427" stroke-width="18" stroke-dasharray="18 16"/>
    <path d="M304 368C354 334 402 324 450 330" fill="none" stroke="#6C5CE7" stroke-linecap="round" stroke-linejoin="round" stroke-width="14" stroke-dasharray="10 18"/>
    <rect x="424" y="284" width="96" height="122" rx="26" fill="#FFC542" stroke="#161427" stroke-width="16"/>
    <rect x="444" y="310" width="54" height="10" rx="5" fill="#161427"/>
    <g>
      <ellipse cx="266" cy="372" rx="58" ry="78" transform="rotate(-24 266 372)" fill="#6C5CE7"/>
      <ellipse cx="368" cy="372" rx="58" ry="78" transform="rotate(24 368 372)" fill="#6C5CE7"/>
      <path d="M294 258C282 244 272 232 262 220" fill="none" stroke="#161427" stroke-linecap="round" stroke-width="12"/>
      <path d="M340 258C352 244 362 232 372 220" fill="none" stroke="#161427" stroke-linecap="round" stroke-width="12"/>
      <circle cx="260" cy="218" r="8" fill="#161427"/>
      <circle cx="374" cy="218" r="8" fill="#161427"/>
      <circle cx="318" cy="286" r="28" fill="#FFC542"/>
      <rect x="286" y="314" width="64" height="170" rx="32" fill="#FFC542"/>
      <rect x="286" y="366" width="64" height="18" rx="9" fill="#161427"/>
      <rect x="286" y="418" width="64" height="18" rx="9" fill="#161427"/>
    </g>
    <path d="M860 214L882 236L860 258L838 236Z" fill="#FFC542"/>
    <path d="M210 520L226 536L210 552L194 536Z" fill="#6C5CE7"/>
  </g>
</svg>
