<svg xmlns="http://www.w3.org/2000/svg" viewBox="0 0 1000 700" role="img" aria-labelledby="title desc">
  <title id="title">Beeroniza beer empty state illustration</title>
  <desc id="desc">A small beer glass motif placing a layer into a stacked image frame.</desc>
  <g>
    <rect x="548" y="164" width="232" height="280" rx="72" transform="rotate(-8 548 164)" fill="#6C5CE7"/>
    <rect x="646" y="176" width="232" height="280" rx="72" transform="rotate(8 646 176)" fill="#FFC542"/>
    <rect x="560" y="170" width="264" height="304" rx="78" fill="#F7F7FB" stroke="#161427" stroke-width="28"/>
    <rect x="622" y="236" width="140" height="16" rx="8" fill="#6C5CE7" fill-opacity="0.45"/>
    <rect x="622" y="274" width="108" height="16" rx="8" fill="#6C5CE7" fill-opacity="0.28"/>
    <rect x="612" y="320" width="160" height="110" rx="26" fill="none" stroke="#161427" stroke-width="18" stroke-dasharray="18 16"/>
    <path d="M314 382C362 342 410 328 458 332" fill="none" stroke="#6C5CE7" stroke-linecap="round" stroke-linejoin="round" stroke-width="14" stroke-dasharray="10 18"/>
    <rect x="428" y="286" width="92" height="118" rx="24" fill="#FFC542" stroke="#161427" stroke-width="16"/>
    <rect x="446" y="310" width="56" height="10" rx="5" fill="#161427" fill-opacity="0.18"/>
    <rect x="446" y="334" width="56" height="10" rx="5" fill="#161427" fill-opacity="0.18"/>
    <path d="M202 418C202 390 224 368 252 368H266C274 348 292 336 314 336C340 336 362 354 366 378C390 380 410 400 410 426C410 454 388 476 360 476H254C226 476 202 454 202 426V418Z" fill="#F7F7FB" stroke="#161427" stroke-width="18" stroke-linejoin="round"/>
    <path d="M228 446H338C348 446 356 454 356 464V588C356 610 338 628 316 628H250C228 628 210 610 210 588V464C210 454 218 446 228 446Z" fill="#FFC542"/>
    <path d="M354 472H392C416 472 436 492 436 516V540C436 564 416 584 392 584H362" fill="none" stroke="#6C5CE7" stroke-linecap="round" stroke-linejoin="round" stroke-width="18"/>
    <rect x="236" y="500" width="94" height="16" rx="8" fill="#161427" fill-opacity="0.18"/>
    <rect x="236" y="536" width="94" height="16" rx="8" fill="#161427" fill-opacity="0.18"/>
    <path d="M860 214L882 236L860 258L838 236Z" fill="#FFC542"/>
    <path d="M200 298L216 314L200 330L184 314Z" fill="#6C5CE7"/>
  </g>
</svg>
