<svg xmlns="http://www.w3.org/2000/svg" viewBox="0 0 1200 630" role="img" aria-labelledby="title desc">
  <title id="title">Beeroniza beer Open Graph image</title>
  <desc id="desc">A social preview banner for Beeroniza with the beer glass mark on the left and empty headline space on the right.</desc>
  <defs>
    <pattern id="grid" width="48" height="48" patternUnits="userSpaceOnUse">
      <path d="M48 0H0V48" fill="none" stroke="#6C5CE7" stroke-opacity="0.18" stroke-width="1"/>
    </pattern>
  </defs>
  <rect width="1200" height="630" fill="#161427"/>
  <rect width="1200" height="630" fill="url(#grid)"/>
  <rect x="92" y="108" width="320" height="320" rx="96" fill="#201B3B"/>
  <rect x="92" y="108" width="320" height="320" rx="96" fill="none" stroke="#6C5CE7" stroke-opacity="0.24" stroke-width="6"/>
  <g transform="translate(80 94) scale(0.32)">
    <rect x="266" y="302" width="344" height="420" rx="104" transform="rotate(-10 266 302)" fill="#F7F7FB" opacity="0.92"/>
    <rect x="414" y="304" width="344" height="420" rx="104" transform="rotate(10 414 304)" fill="#FFC542"/>
    <rect x="298" y="288" width="428" height="452" rx="128" fill="none" stroke="#F7F7FB" stroke-width="40"/>
    <path d="M444 434H580C594 434 606 446 606 460V640C606 670 582 694 552 694H472C442 694 418 670 418 640V460C418 446 430 434 444 434Z" fill="#FFC542"/>
    <path d="M604 470H648C680 470 706 496 706 528V564C706 596 680 622 648 622H612" fill="none" stroke="#F7F7FB" stroke-linecap="round" stroke-linejoin="round" stroke-width="28"/>
    <rect x="452" y="506" width="120" height="22" rx="11" fill="#161427" fill-opacity="0.26"/>
    <rect x="452" y="552" width="120" height="22" rx="11" fill="#161427" fill-opacity="0.26"/>
    <rect x="452" y="598" width="120" height="22" rx="11" fill="#161427" fill-opacity="0.26"/>
    <path d="M414 418C414 386 440 360 472 360H486C496 336 518 320 544 320C576 320 602 344 604 374C636 378 660 404 660 436C660 470 632 498 598 498H468C438 498 414 474 414 444V418Z" fill="#F7F7FB" stroke="#F7F7FB" stroke-width="24" stroke-linejoin="round"/>
    <circle cx="470" cy="390" r="18" fill="#F7F7FB"/>
    <circle cx="516" cy="364" r="24" fill="#F7F7FB"/>
    <circle cx="566" cy="384" r="20" fill="#F7F7FB"/>
  </g>
  <rect x="530" y="112" width="576" height="320" rx="56" fill="none" stroke="#6C5CE7" stroke-opacity="0.18" stroke-width="4"/>
  <rect x="574" y="156" width="260" height="28" rx="14" fill="#F7F7FB" fill-opacity="0.92"/>
  <rect x="574" y="206" width="418" height="18" rx="9" fill="#6C5CE7" fill-opacity="0.52"/>
  <rect x="574" y="244" width="334" height="18" rx="9" fill="#6C5CE7" fill-opacity="0.32"/>
  <rect x="574" y="302" width="446" height="74" rx="30" fill="#201B3B" stroke="#6C5CE7" stroke-opacity="0.18" stroke-width="3"/>
  <rect x="920" y="148" width="142" height="18" rx="9" fill="#FFC542"/>
  <rect x="964" y="476" width="116" height="14" rx="7" fill="#FFC542"/>
  <rect x="536" y="486" width="188" height="14" rx="7" fill="#6C5CE7" fill-opacity="0.38"/>
  <rect x="752" y="486" width="162" height="14" rx="7" fill="#F7F7FB" fill-opacity="0.28"/>
  <rect x="102" y="454" width="124" height="124" rx="34" transform="rotate(-10 102 454)" fill="#6C5CE7" fill-opacity="0.32"/>
  <rect x="250" y="472" width="120" height="120" rx="34" transform="rotate(10 250 472)" fill="#FFC542" fill-opacity="0.88"/>
</svg>
